<svg width="178" height="100" viewBox="0 0 178 100" fill="none" xmlns="http://www.w3.org/2000/svg">
<path d="M0 61.2606V29.7606H12.825C15.885 29.7606 18.555 30.4356 20.835 31.7856C23.145 33.1056 24.93 34.9506 26.19 37.3206C27.48 39.6906 28.125 42.4206 28.125 45.5106C28.125 48.6306 27.48 51.3756 26.19 53.7456C24.93 56.0856 23.16 57.9306 20.88 59.2806C18.6 60.6006 15.915 61.2606 12.825 61.2606H0ZM12.6 35.6556H6.48V55.3656H12.6C15.39 55.3656 17.58 54.4806 19.17 52.7106C20.76 50.9406 21.555 48.5406 21.555 45.5106C21.555 42.5106 20.745 40.1256 19.125 38.3556C17.535 36.5556 15.36 35.6556 12.6 35.6556Z" fill="white"/>
<path d="M42.7823 61.7106C40.2323 61.7106 37.9973 61.1856 36.0773 60.1356C34.1573 59.0856 32.6573 57.6456 31.5773 55.8156C30.5273 53.9856 30.0023 51.8856 30.0023 49.5156C30.0023 47.0556 30.5123 44.8956 31.5323 43.0356C32.5823 41.1456 34.0073 39.6606 35.8073 38.5806C37.6373 37.5006 39.7373 36.9606 42.1073 36.9606C44.2373 36.9606 46.1423 37.4856 47.8223 38.5356C49.5323 39.5556 50.8523 40.9506 51.7823 42.7206C52.7423 44.4906 53.1923 46.5156 53.1323 48.7956L53.0873 50.7306H35.9873C36.3173 52.4406 37.1273 53.7906 38.4173 54.7806C39.7373 55.7706 41.4023 56.2656 43.4123 56.2656C44.4923 56.2656 45.4673 56.1006 46.3373 55.7706C47.2373 55.4406 48.1973 54.8556 49.2173 54.0156L52.1873 58.1556C50.8973 59.2956 49.4123 60.1806 47.7323 60.8106C46.0823 61.4106 44.4323 61.7106 42.7823 61.7106ZM42.1523 42.2706C38.7623 42.2706 36.7223 43.8006 36.0323 46.8606H47.2823V46.6806C47.1923 45.3906 46.6523 44.3406 45.6623 43.5306C44.7023 42.6906 43.5323 42.2706 42.1523 42.2706Z" fill="white"/>
<path d="M64.1095 61.7106C61.9195 61.7106 59.9695 61.3506 58.2595 60.6306C56.5495 59.9106 55.1695 58.8906 54.1195 57.5706L57.9895 54.2856C58.8895 55.2756 59.9095 55.9956 61.0495 56.4456C62.1895 56.8656 63.3445 57.0756 64.5145 57.0756C65.4445 57.0756 66.1945 56.8656 66.7645 56.4456C67.3345 56.0256 67.6195 55.4406 67.6195 54.6906C67.6195 54.0306 67.3495 53.5056 66.8095 53.1156C66.2695 52.7556 64.9795 52.3056 62.9395 51.7656C59.9095 50.9856 57.7645 49.9206 56.5045 48.5706C55.3945 47.3706 54.8395 45.8856 54.8395 44.1156C54.8395 42.7056 55.2595 41.4756 56.0995 40.4256C56.9395 39.3456 58.0495 38.5056 59.4295 37.9056C60.8095 37.3056 62.3095 37.0056 63.9295 37.0056C65.7895 37.0056 67.5445 37.3356 69.1945 37.9956C70.8445 38.6556 72.2245 39.5556 73.3345 40.6956L70.0045 44.3406C69.1645 43.5606 68.1895 42.9156 67.0795 42.4056C65.9995 41.8656 64.9945 41.5956 64.0645 41.5956C61.9045 41.5956 60.8245 42.3456 60.8245 43.8456C60.8545 44.5656 61.1845 45.1356 61.8145 45.5556C62.4145 45.9756 63.7795 46.4706 65.9095 47.0406C68.7595 47.7906 70.7695 48.7806 71.9395 50.0106C72.9595 51.0606 73.4695 52.4556 73.4695 54.1956C73.4695 55.6356 73.0495 56.9256 72.2095 58.0656C71.3995 59.2056 70.2895 60.1056 68.8795 60.7656C67.4695 61.3956 65.8795 61.7106 64.1095 61.7106Z" fill="white"/>
<path d="M78.6572 61.2606V43.0356H74.1572V37.5006H78.6572V31.4256H84.7772V37.5006H89.7722V43.0356H84.7772V61.2606H78.6572Z" fill="white"/>
<path d="M92.7693 61.2606V37.5006H98.9343V61.2606H92.7693Z" fill="white"/>
<path d="M104.005 61.2606V37.5006H109.945L110.035 40.6956C110.845 39.6156 111.925 38.7306 113.275 38.0406C114.625 37.3506 116.035 37.0056 117.505 37.0056C122.965 37.0056 125.695 40.2456 125.695 46.7256V61.2606H119.575V47.1756C119.575 43.7856 118.15 42.1506 115.3 42.2706C113.83 42.2706 112.6 42.7206 111.61 43.6206C110.65 44.5206 110.17 45.6306 110.17 46.9506V61.2606H104.005Z" fill="white"/>
<path d="M141.273 61.7106C138.723 61.7106 136.488 61.1856 134.568 60.1356C132.648 59.0856 131.148 57.6456 130.068 55.8156C129.018 53.9856 128.493 51.8856 128.493 49.5156C128.493 47.0556 129.003 44.8956 130.023 43.0356C131.073 41.1456 132.498 39.6606 134.298 38.5806C136.128 37.5006 138.228 36.9606 140.598 36.9606C142.728 36.9606 144.633 37.4856 146.313 38.5356C148.023 39.5556 149.343 40.9506 150.273 42.7206C151.233 44.4906 151.683 46.5156 151.623 48.7956L151.578 50.7306H134.478C134.808 52.4406 135.618 53.7906 136.908 54.7806C138.228 55.7706 139.893 56.2656 141.903 56.2656C142.983 56.2656 143.958 56.1006 144.828 55.7706C145.728 55.4406 146.688 54.8556 147.708 54.0156L150.678 58.1556C149.388 59.2956 147.903 60.1806 146.223 60.8106C144.573 61.4106 142.923 61.7106 141.273 61.7106ZM140.643 42.2706C137.253 42.2706 135.213 43.8006 134.523 46.8606H145.773V46.6806C145.683 45.3906 145.143 44.3406 144.153 43.5306C143.193 42.6906 142.023 42.2706 140.643 42.2706Z" fill="white"/>
<path d="M163.995 61.7106C161.895 61.7106 160.02 61.1856 158.37 60.1356C156.72 59.0556 155.415 57.5856 154.455 55.7256C153.525 53.8656 153.06 51.7506 153.06 49.3806C153.06 46.9806 153.525 44.8506 154.455 42.9906C155.415 41.1306 156.72 39.6756 158.37 38.6256C160.02 37.5456 161.895 37.0056 163.995 37.0056C165.435 37.0056 166.8 37.2906 168.09 37.8606C169.41 38.4306 170.475 39.1656 171.285 40.0656V27.9606H177.45V61.2606H171.6L171.51 58.4256C170.73 59.3556 169.665 60.1356 168.315 60.7656C166.965 61.3956 165.525 61.7106 163.995 61.7106ZM165.345 56.5806C167.175 56.5806 168.66 55.9206 169.8 54.6006C170.94 53.2506 171.51 51.5106 171.51 49.3806C171.51 47.2206 170.94 45.4806 169.8 44.1606C168.66 42.8106 167.175 42.1356 165.345 42.1356C163.515 42.1356 162.03 42.8106 160.89 44.1606C159.75 45.4806 159.18 47.2206 159.18 49.3806C159.18 51.5106 159.75 53.2506 160.89 54.6006C162.03 55.9206 163.515 56.5806 165.345 56.5806Z" fill="white"/>
<g filter="url(#filter0_di_52396_15812)">
<path d="M95.5644 26.842C88.1484 22.2304 83.8767 19.7655 83.365 15.3996C82.9602 11.9417 85.4707 9.8265 85.5249 9.76973C89.5058 6.16835 93.8725 8.6051 94.9253 9.48218C95.6961 8.30547 99.2046 4.58289 103.871 6.57658C104.55 6.86431 106.813 8.03341 107.42 10.8632C108.459 15.7684 103.608 20.7297 98.7757 26.3054C98.369 26.7786 97.8142 27.0634 97.235 27.1623C96.6678 27.2592 96.0748 27.1586 95.5644 26.842Z" fill="url(#paint0_linear_52396_15812)"/>
</g>
<g filter="url(#filter1_f_52396_15812)">
<circle cx="89.5787" cy="13.8088" r="2.37113" transform="rotate(-10.4187 89.5787 13.8088)" fill="#FFA9B7"/>
</g>
<path d="M87.7693 10.5259C86.5111 11.1354 84.3911 13.019 85.9761 15.6774C86.0393 14.5312 86.4866 11.8963 87.7693 10.5259Z" fill="#FF748D"/>
<path d="M12.2107 89.4406C11.2867 89.4406 10.4347 89.2786 9.65468 88.9546C8.87468 88.6306 8.19668 88.1806 7.62068 87.6046C7.05668 87.0166 6.61268 86.3266 6.28868 85.5346C5.97668 84.7426 5.82068 83.8726 5.82068 82.9246C5.82068 81.9886 5.97668 81.1246 6.28868 80.3326C6.61268 79.5406 7.05668 78.8566 7.62068 78.2806C8.19668 77.6926 8.87468 77.2366 9.65468 76.9126C10.4347 76.5886 11.2867 76.4266 12.2107 76.4266C13.1227 76.4266 13.9687 76.5886 14.7487 76.9126C15.5287 77.2366 16.2007 77.6926 16.7647 78.2806C17.3407 78.8686 17.7847 79.5586 18.0967 80.3506C18.4207 81.1426 18.5827 82.0006 18.5827 82.9246C18.5827 83.8606 18.4207 84.7246 18.0967 85.5166C17.7847 86.3086 17.3407 86.9986 16.7647 87.5866C16.2007 88.1746 15.5287 88.6306 14.7487 88.9546C13.9687 89.2786 13.1227 89.4406 12.2107 89.4406ZM12.2107 86.9746C12.9307 86.9746 13.5727 86.8006 14.1367 86.4526C14.7007 86.1046 15.1387 85.6246 15.4507 85.0126C15.7747 84.4006 15.9367 83.7046 15.9367 82.9246C15.9367 82.1446 15.7747 81.4546 15.4507 80.8546C15.1387 80.2426 14.7007 79.7626 14.1367 79.4146C13.5727 79.0546 12.9307 78.8746 12.2107 78.8746C11.4787 78.8746 10.8307 79.0486 10.2667 79.3966C9.70268 79.7446 9.25868 80.2246 8.93468 80.8366C8.62268 81.4486 8.46668 82.1446 8.46668 82.9246C8.46668 83.7166 8.62268 84.4186 8.93468 85.0306C9.25868 85.6306 9.70268 86.1046 10.2667 86.4526C10.8307 86.8006 11.4787 86.9746 12.2107 86.9746ZM20.8476 89.2606V79.7566H23.2236L23.2596 81.0346C23.5836 80.6026 24.0156 80.2486 24.5556 79.9726C25.0956 79.6966 25.6596 79.5586 26.2476 79.5586C28.4316 79.5586 29.5236 80.8546 29.5236 83.4466V89.2606H27.0756V83.6266C27.0756 82.2706 26.5056 81.6166 25.3656 81.6646C24.7776 81.6646 24.2856 81.8446 23.8896 82.2046C23.5056 82.5646 23.3136 83.0086 23.3136 83.5366V89.2606H20.8476ZM32.1905 89.2606V75.9406H34.6385V89.2606H32.1905ZM38.9086 77.7766C38.4286 77.7766 38.0506 77.6566 37.7746 77.4166C37.5106 77.1766 37.3786 76.8466 37.3786 76.4266C37.3786 76.0186 37.5106 75.6886 37.7746 75.4366C38.0506 75.1846 38.4286 75.0586 38.9086 75.0586C39.3886 75.0586 39.7606 75.1786 40.0246 75.4186C40.2886 75.6586 40.4206 75.9946 40.4206 76.4266C40.4206 76.8226 40.2826 77.1466 40.0066 77.3986C39.7426 77.6506 39.3766 77.7766 38.9086 77.7766ZM37.6846 89.2606V79.7566H40.1506V89.2606H37.6846ZM43.079 89.2606V79.7566H45.455L45.491 81.0346C45.815 80.6026 46.247 80.2486 46.787 79.9726C47.327 79.6966 47.891 79.5586 48.479 79.5586C50.663 79.5586 51.755 80.8546 51.755 83.4466V89.2606H49.307V83.6266C49.307 82.2706 48.737 81.6166 47.597 81.6646C47.009 81.6646 46.517 81.8446 46.121 82.2046C45.737 82.5646 45.545 83.0086 45.545 83.5366V89.2606H43.079ZM58.8859 89.4406C57.8659 89.4406 56.9719 89.2306 56.2039 88.8106C55.4359 88.3906 54.8359 87.8146 54.4039 87.0826C53.9839 86.3506 53.7739 85.5106 53.7739 84.5626C53.7739 83.5786 53.9779 82.7146 54.3859 81.9706C54.8059 81.2146 55.3759 80.6206 56.0959 80.1886C56.8279 79.7566 57.6679 79.5406 58.6159 79.5406C59.4679 79.5406 60.2299 79.7506 60.9019 80.1706C61.5859 80.5786 62.1139 81.1366 62.4859 81.8446C62.8699 82.5526 63.0499 83.3626 63.0259 84.2746L63.0079 85.0486H56.1679C56.2999 85.7326 56.6239 86.2726 57.1399 86.6686C57.6679 87.0646 58.3339 87.2626 59.1379 87.2626C59.5699 87.2626 59.9599 87.1966 60.3079 87.0646C60.6679 86.9326 61.0519 86.6986 61.4599 86.3626L62.6479 88.0186C62.1319 88.4746 61.5379 88.8286 60.8659 89.0806C60.2059 89.3206 59.5459 89.4406 58.8859 89.4406ZM58.6339 81.6646C57.2779 81.6646 56.4619 82.2766 56.1859 83.5006H60.6859V83.4286C60.6499 82.9126 60.4339 82.4926 60.0379 82.1686C59.6539 81.8326 59.1859 81.6646 58.6339 81.6646ZM71.12 89.2606V76.6606H76.25C77.474 76.6606 78.542 76.9306 79.454 77.4706C80.378 77.9986 81.092 78.7366 81.596 79.6846C82.112 80.6326 82.37 81.7246 82.37 82.9606C82.37 84.2086 82.112 85.3066 81.596 86.2546C81.092 87.1906 80.384 87.9286 79.472 88.4686C78.56 88.9966 77.486 89.2606 76.25 89.2606H71.12ZM76.16 79.0186H73.712V86.9026H76.16C77.276 86.9026 78.152 86.5486 78.788 85.8406C79.424 85.1326 79.742 84.1726 79.742 82.9606C79.742 81.7606 79.418 80.8066 78.77 80.0986C78.134 79.3786 77.264 79.0186 76.16 79.0186ZM88.215 89.4406C87.423 89.4406 86.709 89.2246 86.073 88.7926C85.437 88.3606 84.927 87.7726 84.543 87.0286C84.171 86.2846 83.985 85.4386 83.985 84.4906C83.985 83.5186 84.171 82.6666 84.543 81.9346C84.927 81.1906 85.443 80.6086 86.091 80.1886C86.751 79.7686 87.495 79.5586 88.323 79.5586C88.995 79.5586 89.583 79.6966 90.087 79.9726C90.591 80.2366 90.993 80.5846 91.293 81.0166V79.7566H93.741V89.2606H91.275V87.9826C90.939 88.4026 90.501 88.7506 89.961 89.0266C89.433 89.3026 88.851 89.4406 88.215 89.4406ZM88.881 87.2986C89.613 87.2986 90.207 87.0406 90.663 86.5246C91.119 86.0086 91.347 85.3306 91.347 84.4906C91.347 83.6506 91.119 82.9726 90.663 82.4566C90.207 81.9406 89.613 81.6826 88.881 81.6826C88.161 81.6826 87.573 81.9406 87.117 82.4566C86.673 82.9726 86.451 83.6506 86.451 84.4906C86.451 85.3306 86.673 86.0086 87.117 86.5246C87.573 87.0406 88.161 87.2986 88.881 87.2986ZM97.4389 89.2606V81.9706H95.6389V79.7566H97.4389V77.3266H99.8869V79.7566H101.885V81.9706H99.8869V89.2606H97.4389ZM105.208 77.7766C104.728 77.7766 104.35 77.6566 104.074 77.4166C103.81 77.1766 103.678 76.8466 103.678 76.4266C103.678 76.0186 103.81 75.6886 104.074 75.4366C104.35 75.1846 104.728 75.0586 105.208 75.0586C105.688 75.0586 106.06 75.1786 106.324 75.4186C106.588 75.6586 106.72 75.9946 106.72 76.4266C106.72 76.8226 106.582 77.1466 106.306 77.3986C106.042 77.6506 105.676 77.7766 105.208 77.7766ZM103.984 89.2606V79.7566H106.45V89.2606H103.984ZM109.378 89.2606V79.7566H111.754L111.79 81.0346C112.114 80.6026 112.546 80.2486 113.086 79.9726C113.626 79.6966 114.19 79.5586 114.778 79.5586C116.962 79.5586 118.054 80.8546 118.054 83.4466V89.2606H115.606V83.6266C115.606 82.2706 115.036 81.6166 113.896 81.6646C113.308 81.6646 112.816 81.8446 112.42 82.2046C112.036 82.5646 111.844 83.0086 111.844 83.5366V89.2606H109.378ZM125.005 93.4006C124.273 93.4006 123.541 93.2866 122.809 93.0586C122.089 92.8426 121.501 92.5606 121.045 92.2126L121.909 90.4306C122.281 90.7066 122.719 90.9226 123.223 91.0786C123.739 91.2346 124.261 91.3126 124.789 91.3126C126.649 91.3126 127.579 90.4366 127.579 88.6846V87.9466C127.279 88.3306 126.859 88.6546 126.319 88.9186C125.791 89.1706 125.233 89.2966 124.645 89.2966C123.769 89.2966 122.983 89.0926 122.287 88.6846C121.603 88.2646 121.063 87.6946 120.667 86.9746C120.271 86.2426 120.073 85.4086 120.073 84.4726C120.073 83.5246 120.265 82.6786 120.649 81.9346C121.045 81.1906 121.585 80.6086 122.269 80.1886C122.953 79.7686 123.721 79.5586 124.573 79.5586C125.209 79.5586 125.797 79.6906 126.337 79.9546C126.889 80.2066 127.327 80.5126 127.651 80.8726L127.687 79.7566H130.045V88.5586C130.045 90.1066 129.595 91.3006 128.695 92.1406C127.807 92.9806 126.577 93.4006 125.005 93.4006ZM125.077 87.2806C125.857 87.2806 126.481 87.0226 126.949 86.5066C127.429 85.9906 127.669 85.3186 127.669 84.4906C127.669 83.6506 127.429 82.9726 126.949 82.4566C126.469 81.9286 125.845 81.6646 125.077 81.6646C124.321 81.6646 123.703 81.9286 123.223 82.4566C122.755 82.9846 122.521 83.6626 122.521 84.4906C122.521 85.3186 122.755 85.9906 123.223 86.5066C123.703 87.0226 124.321 87.2806 125.077 87.2806ZM137.297 89.2606L142.229 76.6606H144.569L149.483 89.2606H146.819L145.793 86.5426H140.897L139.871 89.2606H137.297ZM142.463 82.4026L141.707 84.4186H145.001L144.227 82.3666C144.155 82.1866 144.071 81.9526 143.975 81.6646C143.879 81.3646 143.771 81.0466 143.651 80.7106C143.543 80.3746 143.447 80.0566 143.363 79.7566C143.219 80.2006 143.069 80.6566 142.913 81.1246C142.757 81.5926 142.607 82.0186 142.463 82.4026ZM151.125 93.2206V79.7566H153.501L153.537 80.9086C153.849 80.5246 154.275 80.2066 154.815 79.9546C155.355 79.7026 155.925 79.5766 156.525 79.5766C157.353 79.5766 158.091 79.7866 158.739 80.2066C159.387 80.6266 159.897 81.2086 160.269 81.9526C160.641 82.6966 160.827 83.5426 160.827 84.4906C160.827 85.4386 160.641 86.2846 160.269 87.0286C159.897 87.7726 159.387 88.3606 158.739 88.7926C158.091 89.2126 157.353 89.4226 156.525 89.4226C155.961 89.4226 155.415 89.3086 154.887 89.0806C154.359 88.8406 153.933 88.5406 153.609 88.1806V93.2206H151.125ZM155.985 87.2986C156.717 87.2986 157.311 87.0406 157.767 86.5246C158.223 85.9966 158.451 85.3186 158.451 84.4906C158.451 83.6746 158.223 83.0086 157.767 82.4926C157.311 81.9646 156.717 81.7006 155.985 81.7006C155.253 81.7006 154.659 81.9586 154.203 82.4746C153.747 82.9906 153.519 83.6626 153.519 84.4906C153.519 85.3186 153.747 85.9966 154.203 86.5246C154.659 87.0406 155.253 87.2986 155.985 87.2986ZM162.96 93.2206V79.7566H165.336L165.372 80.9086C165.684 80.5246 166.11 80.2066 166.65 79.9546C167.19 79.7026 167.76 79.5766 168.36 79.5766C169.188 79.5766 169.926 79.7866 170.574 80.2066C171.222 80.6266 171.732 81.2086 172.104 81.9526C172.476 82.6966 172.662 83.5426 172.662 84.4906C172.662 85.4386 172.476 86.2846 172.104 87.0286C171.732 87.7726 171.222 88.3606 170.574 88.7926C169.926 89.2126 169.188 89.4226 168.36 89.4226C167.796 89.4226 167.25 89.3086 166.722 89.0806C166.194 88.8406 165.768 88.5406 165.444 88.1806V93.2206H162.96ZM167.82 87.2986C168.552 87.2986 169.146 87.0406 169.602 86.5246C170.058 85.9966 170.286 85.3186 170.286 84.4906C170.286 83.6746 170.058 83.0086 169.602 82.4926C169.146 81.9646 168.552 81.7006 167.82 81.7006C167.088 81.7006 166.494 81.9586 166.038 82.4746C165.582 82.9906 165.354 83.6626 165.354 84.4906C165.354 85.3186 165.582 85.9966 166.038 86.5246C166.494 87.0406 167.088 87.2986 167.82 87.2986Z" fill="white"/>
<defs>
<filter id="filter0_di_52396_15812" x="77.3208" y="0" width="40.2405" height="37.1976" filterUnits="userSpaceOnUse" color-interpolation-filters="sRGB">
<feFlood flood-opacity="0" result="BackgroundImageFix"/>
<feColorMatrix in="SourceAlpha" type="matrix" values="0 0 0 0 0 0 0 0 0 0 0 0 0 0 0 0 0 0 127 0" result="hardAlpha"/>
<feOffset dx="2" dy="2"/>
<feGaussianBlur stdDeviation="4"/>
<feColorMatrix type="matrix" values="0 0 0 0 0.952941 0 0 0 0 0.27451 0 0 0 0 0.388235 0 0 0 0.3 0"/>
<feBlend mode="normal" in2="BackgroundImageFix" result="effect1_dropShadow_52396_15812"/>
<feBlend mode="normal" in="SourceGraphic" in2="effect1_dropShadow_52396_15812" result="shape"/>
<feColorMatrix in="SourceAlpha" type="matrix" values="0 0 0 0 0 0 0 0 0 0 0 0 0 0 0 0 0 0 127 0" result="hardAlpha"/>
<feOffset dx="-3" dy="-4"/>
<feGaussianBlur stdDeviation="4.5"/>
<feComposite in2="hardAlpha" operator="arithmetic" k2="-1" k3="1"/>
<feColorMatrix type="matrix" values="0 0 0 0 0.854167 0 0 0 0 0.138802 0 0 0 0 0.353412 0 0 0 1 0"/>
<feBlend mode="normal" in2="shape" result="effect2_innerShadow_52396_15812"/>
</filter>
<filter id="filter1_f_52396_15812" x="82.7037" y="6.93365" width="13.7501" height="13.7502" filterUnits="userSpaceOnUse" color-interpolation-filters="sRGB">
<feFlood flood-opacity="0" result="BackgroundImageFix"/>
<feBlend mode="normal" in="SourceGraphic" in2="BackgroundImageFix" result="shape"/>
<feGaussianBlur stdDeviation="2.2518" result="effect1_foregroundBlur_52396_15812"/>
</filter>
<linearGradient id="paint0_linear_52396_15812" x1="92.7012" y1="11.1255" x2="100.153" y2="22.0692" gradientUnits="userSpaceOnUse">
<stop stop-color="#FF5A90"/>
<stop offset="1" stop-color="#FF2C6B"/>
</linearGradient>
</defs>
</svg>
