<svg width="139" height="130" viewBox="0 0 139 130" fill="none" xmlns="http://www.w3.org/2000/svg">
<g filter="url(#filter0_di_52396_16486)">
<path d="M54.5578 85.9343C31.2353 71.4311 17.8012 63.6793 16.1919 49.9489C14.9189 39.0741 22.8141 32.4221 22.9847 32.2436C35.5041 20.9176 49.2371 28.5809 52.5482 31.3393C54.9722 27.6386 66.0059 15.9315 80.6811 22.2014C82.8175 23.1063 89.9353 26.783 91.8412 35.6823C95.1089 51.1089 79.8531 66.7118 64.6571 84.2465C63.3781 85.7348 61.6333 86.6304 59.8118 86.9416C58.0282 87.2462 56.163 86.9299 54.5578 85.9343Z" fill="url(#paint0_linear_52396_16486)"/>
</g>
<g filter="url(#filter1_di_52396_16486)">
<path d="M44.2283 52.3868L51.5077 58.8843L63.0859 43.7148" stroke="url(#paint1_linear_52396_16486)" stroke-width="5.54713" stroke-linecap="round"/>
</g>
<g filter="url(#filter2_f_52396_16486)">
<circle cx="35.7338" cy="44.9452" r="7.45697" transform="rotate(-10.4187 35.7338 44.9452)" fill="#FFA9B7"/>
</g>
<g filter="url(#filter3_di_52396_16486)">
<path d="M105.595 74.3387C99.7696 70.7159 96.4137 68.7795 96.0117 65.3497C95.6937 62.6332 97.666 60.9715 97.7086 60.9269C100.836 58.0977 104.266 60.012 105.093 60.701C105.699 59.7766 108.455 56.8522 112.121 58.4184C112.655 58.6445 114.433 59.5629 114.909 61.7859C115.725 65.6394 111.914 69.537 108.118 73.9171C107.799 74.2889 107.363 74.5126 106.908 74.5903C106.462 74.6665 105.996 74.5874 105.595 74.3387Z" fill="url(#paint2_linear_52396_16486)"/>
</g>
<g filter="url(#filter4_di_52396_16486)">
<path d="M94.9186 96.1629C91.1853 93.8413 89.0348 92.6005 88.7772 90.4026C88.5735 88.6618 89.8373 87.597 89.8646 87.5684C91.8686 85.7555 94.0669 86.9822 94.5969 87.4237C94.9849 86.8313 96.7511 84.9573 99.1002 85.961C99.4422 86.1058 100.582 86.6944 100.887 88.1189C101.41 90.5883 98.9677 93.0859 96.5352 95.8927C96.3305 96.1309 96.0512 96.2743 95.7596 96.3241C95.4741 96.3729 95.1755 96.3222 94.9186 96.1629Z" fill="url(#paint3_linear_52396_16486)"/>
</g>
<defs>
<filter id="filter0_di_52396_16486" x="-4.76837e-06" y="-6.67572e-06" width="138.686" height="129.116" filterUnits="userSpaceOnUse" color-interpolation-filters="sRGB">
<feFlood flood-opacity="0" result="BackgroundImageFix"/>
<feColorMatrix in="SourceAlpha" type="matrix" values="0 0 0 0 0 0 0 0 0 0 0 0 0 0 0 0 0 0 127 0" result="hardAlpha"/>
<feOffset dx="15.1726" dy="10.8376"/>
<feGaussianBlur stdDeviation="15.6128"/>
<feColorMatrix type="matrix" values="0 0 0 0 0.192157 0 0 0 0 0.0784314 0 0 0 0 0.105726 0 0 0 1 0"/>
<feBlend mode="normal" in2="BackgroundImageFix" result="effect1_dropShadow_52396_16486"/>
<feBlend mode="normal" in="SourceGraphic" in2="effect1_dropShadow_52396_16486" result="shape"/>
<feColorMatrix in="SourceAlpha" type="matrix" values="0 0 0 0 0 0 0 0 0 0 0 0 0 0 0 0 0 0 127 0" result="hardAlpha"/>
<feOffset dx="-15.6854" dy="-15.6854"/>
<feGaussianBlur stdDeviation="14.1169"/>
<feComposite in2="hardAlpha" operator="arithmetic" k2="-1" k3="1"/>
<feColorMatrix type="matrix" values="0 0 0 0 0.708333 0 0 0 0 0.0619792 0 0 0 0 0.108921 0 0 0 1 0"/>
<feBlend mode="normal" in2="shape" result="effect2_innerShadow_52396_16486"/>
</filter>
<filter id="filter1_di_52396_16486" x="36.4546" y="34.941" width="44.405" height="42.0069" filterUnits="userSpaceOnUse" color-interpolation-filters="sRGB">
<feFlood flood-opacity="0" result="BackgroundImageFix"/>
<feColorMatrix in="SourceAlpha" type="matrix" values="0 0 0 0 0 0 0 0 0 0 0 0 0 0 0 0 0 0 127 0" result="hardAlpha"/>
<feOffset dx="5" dy="4"/>
<feGaussianBlur stdDeviation="5"/>
<feColorMatrix type="matrix" values="0 0 0 0 0.366667 0 0 0 0 0.0595833 0 0 0 0 0.0839254 0 0 0 0.8 0"/>
<feBlend mode="normal" in2="BackgroundImageFix" result="effect1_dropShadow_52396_16486"/>
<feBlend mode="normal" in="SourceGraphic" in2="effect1_dropShadow_52396_16486" result="shape"/>
<feColorMatrix in="SourceAlpha" type="matrix" values="0 0 0 0 0 0 0 0 0 0 0 0 0 0 0 0 0 0 127 0" result="hardAlpha"/>
<feOffset dx="-0.886846" dy="-1.77369"/>
<feGaussianBlur stdDeviation="0.886846"/>
<feComposite in2="hardAlpha" operator="arithmetic" k2="-1" k3="1"/>
<feColorMatrix type="matrix" values="0 0 0 0 0.708333 0 0 0 0 0.0619792 0 0 0 0 0.108921 0 0 0 0.1 0"/>
<feBlend mode="normal" in2="shape" result="effect2_innerShadow_52396_16486"/>
</filter>
<filter id="filter2_f_52396_16486" x="14.1122" y="23.3235" width="43.2433" height="43.2434" filterUnits="userSpaceOnUse" color-interpolation-filters="sRGB">
<feFlood flood-opacity="0" result="BackgroundImageFix"/>
<feBlend mode="normal" in="SourceGraphic" in2="BackgroundImageFix" result="shape"/>
<feGaussianBlur stdDeviation="7.08171" result="effect1_foregroundBlur_52396_16486"/>
</filter>
<filter id="filter3_di_52396_16486" x="91.9671" y="52.8726" width="34.6433" height="32.2528" filterUnits="userSpaceOnUse" color-interpolation-filters="sRGB">
<feFlood flood-opacity="0" result="BackgroundImageFix"/>
<feColorMatrix in="SourceAlpha" type="matrix" values="0 0 0 0 0 0 0 0 0 0 0 0 0 0 0 0 0 0 127 0" result="hardAlpha"/>
<feOffset dx="3.79007" dy="2.70719"/>
<feGaussianBlur stdDeviation="3.90003"/>
<feColorMatrix type="matrix" values="0 0 0 0 0.192157 0 0 0 0 0.0784314 0 0 0 0 0.105726 0 0 0 1 0"/>
<feBlend mode="normal" in2="BackgroundImageFix" result="effect1_dropShadow_52396_16486"/>
<feBlend mode="normal" in="SourceGraphic" in2="effect1_dropShadow_52396_16486" result="shape"/>
<feColorMatrix in="SourceAlpha" type="matrix" values="0 0 0 0 0 0 0 0 0 0 0 0 0 0 0 0 0 0 127 0" result="hardAlpha"/>
<feOffset dx="-3.91818" dy="-3.91818"/>
<feGaussianBlur stdDeviation="3.52636"/>
<feComposite in2="hardAlpha" operator="arithmetic" k2="-1" k3="1"/>
<feColorMatrix type="matrix" values="0 0 0 0 0.708333 0 0 0 0 0.0619792 0 0 0 0 0.108921 0 0 0 1 0"/>
<feBlend mode="normal" in2="shape" result="effect2_innerShadow_52396_16486"/>
</filter>
<filter id="filter4_di_52396_16486" x="86.1855" y="82.4071" width="22.1996" height="20.668" filterUnits="userSpaceOnUse" color-interpolation-filters="sRGB">
<feFlood flood-opacity="0" result="BackgroundImageFix"/>
<feColorMatrix in="SourceAlpha" type="matrix" values="0 0 0 0 0 0 0 0 0 0 0 0 0 0 0 0 0 0 127 0" result="hardAlpha"/>
<feOffset dx="2.42872" dy="1.7348"/>
<feGaussianBlur stdDeviation="2.49918"/>
<feColorMatrix type="matrix" values="0 0 0 0 0.192157 0 0 0 0 0.0784314 0 0 0 0 0.105726 0 0 0 1 0"/>
<feBlend mode="normal" in2="BackgroundImageFix" result="effect1_dropShadow_52396_16486"/>
<feBlend mode="normal" in="SourceGraphic" in2="effect1_dropShadow_52396_16486" result="shape"/>
<feColorMatrix in="SourceAlpha" type="matrix" values="0 0 0 0 0 0 0 0 0 0 0 0 0 0 0 0 0 0 127 0" result="hardAlpha"/>
<feOffset dx="-2.51081" dy="-2.51081"/>
<feGaussianBlur stdDeviation="2.25973"/>
<feComposite in2="hardAlpha" operator="arithmetic" k2="-1" k3="1"/>
<feColorMatrix type="matrix" values="0 0 0 0 0.708333 0 0 0 0 0.0619792 0 0 0 0 0.108921 0 0 0 1 0"/>
<feBlend mode="normal" in2="shape" result="effect2_innerShadow_52396_16486"/>
</filter>
<linearGradient id="paint0_linear_52396_16486" x1="45.5534" y1="36.5073" x2="68.989" y2="70.9242" gradientUnits="userSpaceOnUse">
<stop stop-color="#F64A69"/>
<stop offset="1" stop-color="#EF3349"/>
</linearGradient>
<linearGradient id="paint1_linear_52396_16486" x1="54.5924" y1="42.3269" x2="51.877" y2="58.9446" gradientUnits="userSpaceOnUse">
<stop stop-color="white"/>
<stop offset="1" stop-color="#D9FFE1"/>
</linearGradient>
<linearGradient id="paint2_linear_52396_16486" x1="103.346" y1="61.992" x2="109.2" y2="70.5893" gradientUnits="userSpaceOnUse">
<stop stop-color="#F64A69"/>
<stop offset="1" stop-color="#EF3349"/>
</linearGradient>
<linearGradient id="paint3_linear_52396_16486" x1="93.4772" y1="88.2509" x2="97.2286" y2="93.7602" gradientUnits="userSpaceOnUse">
<stop stop-color="#F64A69"/>
<stop offset="1" stop-color="#EF3349"/>
</linearGradient>
</defs>
</svg>
