<svg width="414" height="563" viewBox="0 0 414 563" fill="none" xmlns="http://www.w3.org/2000/svg">
<circle opacity="0.2" cx="206.708" cy="281.47" r="213.917" transform="rotate(67.5756 206.708 281.47)" stroke="url(#paint0_linear_2048_186)" stroke-width="3.25828"/>
<circle cx="206.249" cy="280.851" r="190.313" transform="rotate(67.5756 206.249 280.851)" stroke="url(#paint1_linear_2048_186)" stroke-width="4.11692"/>
<circle opacity="0.8" cx="206.304" cy="280.418" r="159.235" transform="rotate(67.5756 206.304 280.418)" stroke="url(#paint2_linear_2048_186)" stroke-width="6.19896"/>
<circle cx="206.368" cy="280.85" r="122.259" transform="rotate(75 206.368 280.85)" fill="url(#paint3_linear_2048_186)" stroke="url(#paint4_linear_2048_186)" stroke-width="9"/>
<circle cx="226.159" cy="469.665" r="6" transform="rotate(139.329 226.159 469.665)" fill="#EF35FF"/>
<circle cx="192.398" cy="471.966" r="4.53727" transform="rotate(139.329 192.398 471.966)" fill="#EA6126"/>
<circle cx="161.432" cy="465.307" r="3.44945" transform="rotate(139.329 161.432 465.307)" fill="#2AD36E"/>
<circle cx="32" cy="32" r="32" transform="matrix(-1 0 0 1 91 133.567)" fill="#612DA6"/>
<circle cx="41" cy="41" r="41" transform="matrix(-1 0 0 1 228 36.5674)" fill="#612DA6"/>
<circle cx="25" cy="25" r="25" transform="matrix(-1 0 0 1 382 338.567)" fill="#612DA6"/>
<circle cx="32" cy="32" r="32" transform="matrix(-1 0 0 1 315 413.567)" fill="#612DA6"/>
<circle cx="144" cy="73.5674" r="9.88998" fill="url(#paint5_radial_2048_186)" stroke="#09011E" stroke-width="1.77996"/>
<g filter="url(#filter0_di_2048_186)">
<path d="M335.996 429.011C330.574 420.346 327.353 415.556 329.062 410.703C330.417 406.86 334.145 405.929 334.231 405.897C340.27 404.16 343.605 408.97 344.261 410.434C345.677 409.594 351.281 407.487 355.16 411.984C355.726 412.637 357.503 415.031 356.684 418.317C355.251 424.008 347.598 426.727 339.648 430.1C338.977 430.388 338.247 430.402 337.587 430.208C336.941 430.018 336.37 429.607 335.996 429.011Z" fill="url(#paint6_linear_2048_186)"/>
</g>
<g filter="url(#filter1_di_2048_186)">
<circle cx="287.428" cy="96.9954" r="23.5085" transform="rotate(-4.89327 287.428 96.9954)" fill="url(#paint7_linear_2048_186)"/>
</g>
<path d="M282.716 104.481C283.318 104.489 286.81 105.294 287.355 105.55C287.818 105.778 288.286 106.17 288.15 106.759C287.992 107.313 287.555 107.736 287.037 107.949C286.353 108.275 285.608 108.409 284.875 108.351C284.472 108.312 284.086 108.225 283.72 108.084C283.034 107.816 282.424 107.369 281.953 106.775C281.579 106.358 281.371 105.787 281.472 105.219C281.608 104.631 282.2 104.483 282.716 104.481ZM289.748 84.8861C292.133 85.4359 294.303 87.1517 295.308 89.4003C295.963 90.8498 296.109 92.181 295.668 94.0959L295.553 94.594C295.214 96.0626 295.395 97.016 296.003 98.2066C296.468 99.0878 296.453 100.078 296.217 101.101C295.981 102.124 295.428 103.018 294.587 103.654C293.506 104.399 292.149 104.721 290.881 104.54C289.044 104.281 287.211 103.997 285.385 103.576C283.557 103.155 281.774 102.66 280.021 102.035C278.801 101.644 277.722 100.76 277.077 99.6166C276.599 98.6766 276.493 97.63 276.728 96.6077C276.964 95.5843 277.386 94.688 278.189 94.0992C279.282 93.3008 279.837 92.5172 280.176 91.0486L280.291 90.5504C280.744 88.5837 281.522 87.4085 282.802 86.3778C284.697 84.8812 287.311 84.3241 289.646 84.8624L289.748 84.8861Z" fill="url(#paint8_linear_2048_186)"/>
<g filter="url(#filter2_di_2048_186)">
<path d="M115.734 113.308C105.641 115.995 100.203 126.304 102.724 135.772C105.647 146.752 116.417 151.183 125.231 148.837C128.145 148.061 131.171 146.417 133.357 144.195C134.117 143.403 134.772 142.79 135.834 142.85L139.708 142.962C140.69 143.006 141.318 142.076 140.796 141.186L138.544 137.517C138.201 137.017 138.081 136.42 138.242 135.882C139.021 132.663 139.072 129.353 138.276 126.363C135.784 117.003 126.058 110.559 115.734 113.308ZM111.749 131.005C113.011 130.67 114.294 131.414 114.63 132.678C114.962 133.923 114.224 135.225 112.962 135.561C111.701 135.897 110.413 135.135 110.081 133.889C109.745 132.625 110.488 131.341 111.749 131.005ZM119.941 128.825C121.18 128.476 122.485 129.233 122.817 130.479C123.154 131.743 122.411 133.027 121.154 133.38C119.892 133.716 118.605 132.954 118.273 131.708C117.937 130.444 118.679 129.16 119.941 128.825ZM128.133 126.644C129.394 126.308 130.677 127.052 131.013 128.316C131.345 129.562 130.589 130.868 129.345 131.199C128.079 131.517 126.796 130.773 126.465 129.527C126.128 128.264 126.871 126.98 128.133 126.644Z" fill="url(#paint9_linear_2048_186)"/>
</g>
<defs>
<filter id="filter0_di_2048_186" x="322.433" y="397.689" width="52.2935" height="48.8138" filterUnits="userSpaceOnUse" color-interpolation-filters="sRGB">
<feFlood flood-opacity="0" result="BackgroundImageFix"/>
<feColorMatrix in="SourceAlpha" type="matrix" values="0 0 0 0 0 0 0 0 0 0 0 0 0 0 0 0 0 0 127 0" result="hardAlpha"/>
<feOffset dx="5.83083" dy="4.16488"/>
<feGaussianBlur stdDeviation="6"/>
<feColorMatrix type="matrix" values="0 0 0 0 0.192157 0 0 0 0 0.0784314 0 0 0 0 0.105726 0 0 0 1 0"/>
<feBlend mode="normal" in2="BackgroundImageFix" result="effect1_dropShadow_2048_186"/>
<feBlend mode="normal" in="SourceGraphic" in2="effect1_dropShadow_2048_186" result="shape"/>
<feColorMatrix in="SourceAlpha" type="matrix" values="0 0 0 0 0 0 0 0 0 0 0 0 0 0 0 0 0 0 127 0" result="hardAlpha"/>
<feOffset dx="-6.02791" dy="-6.02791"/>
<feGaussianBlur stdDeviation="5.42512"/>
<feComposite in2="hardAlpha" operator="arithmetic" k2="-1" k3="1"/>
<feColorMatrix type="matrix" values="0 0 0 0 0.708333 0 0 0 0 0.0619792 0 0 0 0 0.108921 0 0 0 1 0"/>
<feBlend mode="normal" in2="shape" result="effect2_innerShadow_2048_186"/>
</filter>
<filter id="filter1_di_2048_186" x="258.721" y="66.8853" width="67.2375" height="67.2374" filterUnits="userSpaceOnUse" color-interpolation-filters="sRGB">
<feFlood flood-opacity="0" result="BackgroundImageFix"/>
<feColorMatrix in="SourceAlpha" type="matrix" values="0 0 0 0 0 0 0 0 0 0 0 0 0 0 0 0 0 0 127 0" result="hardAlpha"/>
<feOffset dx="4.91192" dy="3.50851"/>
<feGaussianBlur stdDeviation="5.05443"/>
<feColorMatrix type="matrix" values="0 0 0 0 0.136667 0 0 0 0 0.410652 0 0 0 0 0.8 0 0 0 0.27 0"/>
<feBlend mode="normal" in2="BackgroundImageFix" result="effect1_dropShadow_2048_186"/>
<feBlend mode="normal" in="SourceGraphic" in2="effect1_dropShadow_2048_186" result="shape"/>
<feColorMatrix in="SourceAlpha" type="matrix" values="0 0 0 0 0 0 0 0 0 0 0 0 0 0 0 0 0 0 127 0" result="hardAlpha"/>
<feOffset dx="-5.07794" dy="-5.07794"/>
<feGaussianBlur stdDeviation="4.57015"/>
<feComposite in2="hardAlpha" operator="arithmetic" k2="-1" k3="1"/>
<feColorMatrix type="matrix" values="0 0 0 0 0.0773437 0 0 0 0 0.213187 0 0 0 0 0.5625 0 0 0 1 0"/>
<feBlend mode="normal" in2="shape" result="effect2_innerShadow_2048_186"/>
</filter>
<filter id="filter2_di_2048_186" x="95.9419" y="104.833" width="62.873" height="60.7786" filterUnits="userSpaceOnUse" color-interpolation-filters="sRGB">
<feFlood flood-opacity="0" result="BackgroundImageFix"/>
<feColorMatrix in="SourceAlpha" type="matrix" values="0 0 0 0 0 0 0 0 0 0 0 0 0 0 0 0 0 0 127 0" result="hardAlpha"/>
<feOffset dx="5.83083" dy="4.16488"/>
<feGaussianBlur stdDeviation="6"/>
<feColorMatrix type="matrix" values="0 0 0 0 0.192157 0 0 0 0 0.0784314 0 0 0 0 0.105726 0 0 0 1 0"/>
<feBlend mode="normal" in2="BackgroundImageFix" result="effect1_dropShadow_2048_186"/>
<feBlend mode="normal" in="SourceGraphic" in2="effect1_dropShadow_2048_186" result="shape"/>
<feColorMatrix in="SourceAlpha" type="matrix" values="0 0 0 0 0 0 0 0 0 0 0 0 0 0 0 0 0 0 127 0" result="hardAlpha"/>
<feOffset dx="-6.02791" dy="-6.02791"/>
<feGaussianBlur stdDeviation="5.42512"/>
<feComposite in2="hardAlpha" operator="arithmetic" k2="-1" k3="1"/>
<feColorMatrix type="matrix" values="0 0 0 0 0.679167 0 0 0 0 0.238614 0 0 0 0 0.0452778 0 0 0 1 0"/>
<feBlend mode="normal" in2="shape" result="effect2_innerShadow_2048_186"/>
</filter>
<linearGradient id="paint0_linear_2048_186" x1="206.708" y1="65.9243" x2="206.708" y2="497.016" gradientUnits="userSpaceOnUse">
<stop stop-color="#BD355A"/>
<stop offset="0.305825" stop-color="#070218" stop-opacity="0"/>
<stop offset="0.791262" stop-color="#09011E" stop-opacity="0"/>
<stop offset="1" stop-color="#3228CC"/>
</linearGradient>
<linearGradient id="paint1_linear_2048_186" x1="206.249" y1="88.4796" x2="206.249" y2="473.223" gradientUnits="userSpaceOnUse">
<stop stop-color="#BD355A"/>
<stop offset="0.305825" stop-color="#070218" stop-opacity="0"/>
<stop offset="0.791262" stop-color="#09011E" stop-opacity="0"/>
<stop offset="1" stop-color="#3228CC"/>
</linearGradient>
<linearGradient id="paint2_linear_2048_186" x1="206.304" y1="118.084" x2="206.304" y2="442.752" gradientUnits="userSpaceOnUse">
<stop stop-color="#BD355A"/>
<stop offset="0.305825" stop-color="#070218" stop-opacity="0"/>
<stop offset="0.791262" stop-color="#09011E" stop-opacity="0"/>
<stop offset="1" stop-color="#3228CC"/>
</linearGradient>
<linearGradient id="paint3_linear_2048_186" x1="206.368" y1="154.091" x2="206.368" y2="407.609" gradientUnits="userSpaceOnUse">
<stop stop-color="#270D59"/>
<stop offset="1" stop-color="#07011A" stop-opacity="0"/>
</linearGradient>
<linearGradient id="paint4_linear_2048_186" x1="206.368" y1="154.091" x2="206.368" y2="407.609" gradientUnits="userSpaceOnUse">
<stop stop-color="#BD355A"/>
<stop offset="1" stop-color="#3228CC"/>
</linearGradient>
<radialGradient id="paint5_radial_2048_186" cx="0" cy="0" r="1" gradientUnits="userSpaceOnUse" gradientTransform="translate(141.3 69.9674) rotate(77.9052) scale(12.886)">
<stop stop-color="#BFFF6F"/>
<stop offset="1" stop-color="#12D13C"/>
</radialGradient>
<linearGradient id="paint6_linear_2048_186" x1="341.077" y1="411.016" x2="343.277" y2="426.356" gradientUnits="userSpaceOnUse">
<stop stop-color="#F64A69"/>
<stop offset="1" stop-color="#EF3349"/>
</linearGradient>
<linearGradient id="paint7_linear_2048_186" x1="282.783" y1="82.1271" x2="297.425" y2="108.232" gradientUnits="userSpaceOnUse">
<stop stop-color="#297FE2"/>
<stop offset="1" stop-color="#2149D7"/>
</linearGradient>
<linearGradient id="paint8_linear_2048_186" x1="289.696" y1="84.8741" x2="284.304" y2="108.26" gradientUnits="userSpaceOnUse">
<stop stop-color="white"/>
<stop offset="1" stop-color="#BADAFF"/>
</linearGradient>
<linearGradient id="paint9_linear_2048_186" x1="121.019" y1="118.894" x2="115.205" y2="141.572" gradientUnits="userSpaceOnUse">
<stop stop-color="#F1883B"/>
<stop offset="1" stop-color="#EB350D"/>
</linearGradient>
</defs>
</svg>
